<?xml version="1.0" encoding="UTF-8" standalone="no"?>
<!DOCTYPE svg PUBLIC "-//W3C//DTD SVG 1.1//EN"
 "http://www.w3.org/Graphics/SVG/1.1/DTD/svg11.dtd">
<!-- Generated by graphviz version 2.43.0 (0)
 -->
<!-- Title: endpoint Pages: 1 -->
<svg width="4414pt" height="98pt"
 viewBox="0.00 0.00 4414.44 98.00" xmlns="http://www.w3.org/2000/svg" xmlns:xlink="http://www.w3.org/1999/xlink">
<g id="graph0" class="graph" transform="scale(1 1) rotate(0) translate(4 94)">
<title>endpoint</title>
<polygon fill="white" stroke="transparent" points="-4,4 -4,-94 4410.44,-94 4410.44,4 -4,4"/>
<!-- n_pkg_accounting___github_com_ethersphere_bee_v2_pkg_accounting_Accounting__Balance_cap_pkg_storage_StateStorer_Get -->
<g id="node1" class="node">
<title>n_pkg_accounting___github_com_ethersphere_bee_v2_pkg_accounting_Accounting__Balance_cap_pkg_storage_StateStorer_Get</title>
<polygon fill="wheat" stroke="black" points="2875.93,-72 2677.47,-90 2280.54,-90 2082.08,-72 2280.54,-54 2677.47,-54 2875.93,-72"/>
<text text-anchor="middle" x="2479" y="-69.5" font-family="Helvetica,sans-Serif" font-size="10.00">pkg/storage.StateStorer.Get ← pkg/accounting.(*github.com/ethersphere/bee/v2/pkg/accounting.Accounting).Balance</text>
</g>
<!-- n_pkg_storage_StateStorer_Get_wiring_pkg_statestore_storeadapter -->
<g id="node9" class="node">
<title>n_pkg_storage_StateStorer_Get_wiring_pkg_statestore_storeadapter</title>
<polygon fill="lightblue" stroke="black" points="3298.44,-63 2996.44,-63 2996.44,-59 2992.44,-59 2992.44,-55 2996.44,-55 2996.44,-35 2992.44,-35 2992.44,-31 2996.44,-31 2996.44,-27 3298.44,-27 3298.44,-63"/>
<polyline fill="none" stroke="black" points="2996.44,-59 3000.44,-59 3000.44,-55 2996.44,-55 "/>
<polyline fill="none" stroke="black" points="2996.44,-35 3000.44,-35 3000.44,-31 2996.44,-31 "/>
<text text-anchor="middle" x="3147.44" y="-42.5" font-family="Helvetica,sans-Serif" font-size="10.00">pkg/statestore/storeadapter ← pkg/storage.StateStorer.Get</text>
</g>
<!-- n_pkg_accounting___github_com_ethersphere_bee_v2_pkg_accounting_Accounting__Balance_cap_pkg_storage_StateStorer_Get&#45;&gt;n_pkg_storage_StateStorer_Get_wiring_pkg_statestore_storeadapter -->
<g id="edge4" class="edge">
<title>n_pkg_accounting___github_com_ethersphere_bee_v2_pkg_accounting_Accounting__Balance_cap_pkg_storage_StateStorer_Get&#45;&gt;n_pkg_storage_StateStorer_Get_wiring_pkg_statestore_storeadapter</title>
<path fill="none" stroke="black" d="M2753.95,-60.9C2832.82,-57.71 2916.27,-54.32 2985.85,-51.51"/>
<polygon fill="black" stroke="black" points="2986.16,-55 2996.01,-51.09 2985.88,-48 2986.16,-55"/>
<text text-anchor="middle" x="2948.44" y="-56.8" font-family="Times,serif" font-size="14.00">resolves</text>
</g>
<!-- n_pkg_accounting___github_com_ethersphere_bee_v2_pkg_accounting_Accounting__SurplusBalance_cap_pkg_storage_StateStorer_Get -->
<g id="node2" class="node">
<title>n_pkg_accounting___github_com_ethersphere_bee_v2_pkg_accounting_Accounting__SurplusBalance_cap_pkg_storage_StateStorer_Get</title>
<polygon fill="wheat" stroke="black" points="2900.37,-18 2689.69,-36 2268.32,-36 2057.64,-18 2268.32,0 2689.69,0 2900.37,-18"/>
<text text-anchor="middle" x="2479" y="-15.5" font-family="Helvetica,sans-Serif" font-size="10.00">pkg/storage.StateStorer.Get ← pkg/accounting.(*github.com/ethersphere/bee/v2/pkg/accounting.Accounting).SurplusBalance</text>
</g>
<!-- n_pkg_accounting___github_com_ethersphere_bee_v2_pkg_accounting_Accounting__SurplusBalance_cap_pkg_storage_StateStorer_Get&#45;&gt;n_pkg_storage_StateStorer_Get_wiring_pkg_statestore_storeadapter -->
<g id="edge5" class="edge">
<title>n_pkg_accounting___github_com_ethersphere_bee_v2_pkg_accounting_Accounting__SurplusBalance_cap_pkg_storage_StateStorer_Get&#45;&gt;n_pkg_storage_StateStorer_Get_wiring_pkg_statestore_storeadapter</title>
<path fill="none" stroke="black" d="M2807.85,-25.94C2864.74,-27.87 2923.32,-30.2 2978.44,-33 2980.99,-33.13 2983.57,-33.26 2986.16,-33.4"/>
<polygon fill="black" stroke="black" points="2986.07,-36.9 2996.24,-33.96 2986.45,-29.91 2986.07,-36.9"/>
<text text-anchor="middle" x="2948.44" y="-36.8" font-family="Times,serif" font-size="14.00">resolves</text>
</g>
<!-- n_pkg_api_accountingInfoHandler_cap_pkg_accounting_Interface_PeerAccounting -->
<g id="node3" class="node">
<title>n_pkg_api_accountingInfoHandler_cap_pkg_accounting_Interface_PeerAccounting</title>
<polygon fill="wheat" stroke="black" points="1565.37,-45 1436.32,-63 1178.23,-63 1049.18,-45 1178.23,-27 1436.32,-27 1565.37,-45"/>
<text text-anchor="middle" x="1307.28" y="-42.5" font-family="Helvetica,sans-Serif" font-size="10.00">pkg/accounting.Interface.PeerAccounting ← pkg/api.accountingInfoHandler</text>
</g>
<!-- n_pkg_accounting_Interface_PeerAccounting_wiring_pkg_accounting -->
<g id="node7" class="node">
<title>n_pkg_accounting_Interface_PeerAccounting_wiring_pkg_accounting</title>
<polygon fill="lightblue" stroke="black" points="1966.57,-63 1661.57,-63 1661.57,-59 1657.57,-59 1657.57,-55 1661.57,-55 1661.57,-35 1657.57,-35 1657.57,-31 1661.57,-31 1661.57,-27 1966.57,-27 1966.57,-63"/>
<polyline fill="none" stroke="black" points="1661.57,-59 1665.57,-59 1665.57,-55 1661.57,-55 "/>
<polyline fill="none" stroke="black" points="1661.57,-35 1665.57,-35 1665.57,-31 1661.57,-31 "/>
<text text-anchor="middle" x="1814.07" y="-42.5" font-family="Helvetica,sans-Serif" font-size="10.00">pkg/accounting ← pkg/accounting.Interface.PeerAccounting</text>
</g>
<!-- n_pkg_api_accountingInfoHandler_cap_pkg_accounting_Interface_PeerAccounting&#45;&gt;n_pkg_accounting_Interface_PeerAccounting_wiring_pkg_accounting -->
<g id="edge6" class="edge">
<title>n_pkg_api_accountingInfoHandler_cap_pkg_accounting_Interface_PeerAccounting&#45;&gt;n_pkg_accounting_Interface_PeerAccounting_wiring_pkg_accounting</title>
<path fill="none" stroke="black" d="M1565.48,-45C1594.73,-45 1623.9,-45 1651.41,-45"/>
<polygon fill="black" stroke="black" points="1651.47,-48.5 1661.47,-45 1651.47,-41.5 1651.47,-48.5"/>
<text text-anchor="middle" x="1613.57" y="-48.8" font-family="Times,serif" font-size="14.00">resolves</text>
</g>
<!-- n_pkg_api_accountingInfoHandler_field_pkg_accounting_s_accounting -->
<g id="node4" class="node">
<title>n_pkg_api_accountingInfoHandler_field_pkg_accounting_s_accounting</title>
<polygon fill="wheat" stroke="black" points="692.41,-63 426.78,-45 692.41,-27 958.04,-45 692.41,-63"/>
<text text-anchor="middle" x="692.41" y="-42.5" font-family="Helvetica,sans-Serif" font-size="10.00">pkg/accounting.s.accounting ← pkg/api.accountingInfoHandler</text>
</g>
<!-- n_pkg_api_accountingInfoHandler_field_pkg_accounting_s_accounting&#45;&gt;n_pkg_api_accountingInfoHandler_cap_pkg_accounting_Interface_PeerAccounting -->
<g id="edge7" class="edge">
<title>n_pkg_api_accountingInfoHandler_field_pkg_accounting_s_accounting&#45;&gt;n_pkg_api_accountingInfoHandler_cap_pkg_accounting_Interface_PeerAccounting</title>
<path fill="none" stroke="black" d="M958.21,-45C984.91,-45 1012.04,-45 1038.76,-45"/>
<polygon fill="black" stroke="black" points="1038.98,-48.5 1048.98,-45 1038.98,-41.5 1038.98,-48.5"/>
<text text-anchor="middle" x="1003.48" y="-48.8" font-family="Times,serif" font-size="14.00">invokes</text>
</g>
<!-- handler_accountingInfoHandler -->
<g id="node5" class="node">
<title>handler_accountingInfoHandler</title>
<polygon fill="lightyellow" stroke="black" points="357.85,-63 191.85,-63 191.85,-27 357.85,-27 357.85,-63"/>
<text text-anchor="middle" x="274.85" y="-42.5" font-family="Helvetica,sans-Serif" font-size="10.00">pkg/api.accountingInfoHandler</text>
</g>
<!-- handler_accountingInfoHandler&#45;&gt;n_pkg_api_accountingInfoHandler_field_pkg_accounting_s_accounting -->
<g id="edge1" class="edge">
<title>handler_accountingInfoHandler&#45;&gt;n_pkg_api_accountingInfoHandler_field_pkg_accounting_s_accounting</title>
<path fill="none" stroke="black" d="M357.95,-45C375.74,-45 395.49,-45 416.25,-45"/>
<polygon fill="black" stroke="black" points="416.52,-48.5 426.52,-45 416.52,-41.5 416.52,-48.5"/>
<text text-anchor="middle" x="392.35" y="-48.8" font-family="Times,serif" font-size="14.00">uses</text>
</g>
<!-- route_GET__accounting -->
<g id="node6" class="node">
<title>route_GET__accounting</title>
<ellipse fill="lightyellow" stroke="black" cx="55.92" cy="-45" rx="55.85" ry="18"/>
<text text-anchor="middle" x="55.92" y="-42.5" font-family="Helvetica,sans-Serif" font-size="10.00">GET /accounting</text>
</g>
<!-- route_GET__accounting&#45;&gt;handler_accountingInfoHandler -->
<g id="edge11" class="edge">
<title>route_GET__accounting&#45;&gt;handler_accountingInfoHandler</title>
<path fill="none" stroke="black" d="M111.94,-45C133.14,-45 157.97,-45 181.72,-45"/>
<polygon fill="black" stroke="black" points="181.83,-48.5 191.83,-45 181.83,-41.5 181.83,-48.5"/>
<text text-anchor="middle" x="151.85" y="-48.8" font-family="Times,serif" font-size="14.00">wraps</text>
</g>
<!-- n_pkg_accounting_Interface_PeerAccounting_wiring_pkg_accounting&#45;&gt;n_pkg_accounting___github_com_ethersphere_bee_v2_pkg_accounting_Accounting__Balance_cap_pkg_storage_StateStorer_Get -->
<g id="edge2" class="edge">
<title>n_pkg_accounting_Interface_PeerAccounting_wiring_pkg_accounting&#45;&gt;n_pkg_accounting___github_com_ethersphere_bee_v2_pkg_accounting_Accounting__Balance_cap_pkg_storage_StateStorer_Get</title>
<path fill="none" stroke="black" d="M1966.75,-51.18C2034.37,-53.93 2116.31,-57.27 2194.6,-60.46"/>
<polygon fill="black" stroke="black" points="2194.49,-63.96 2204.62,-60.87 2194.77,-56.96 2194.49,-63.96"/>
<text text-anchor="middle" x="2012.07" y="-56.8" font-family="Times,serif" font-size="14.00">invokes</text>
</g>
<!-- n_pkg_accounting_Interface_PeerAccounting_wiring_pkg_accounting&#45;&gt;n_pkg_accounting___github_com_ethersphere_bee_v2_pkg_accounting_Accounting__SurplusBalance_cap_pkg_storage_StateStorer_Get -->
<g id="edge3" class="edge">
<title>n_pkg_accounting_Interface_PeerAccounting_wiring_pkg_accounting&#45;&gt;n_pkg_accounting___github_com_ethersphere_bee_v2_pkg_accounting_Accounting__SurplusBalance_cap_pkg_storage_StateStorer_Get</title>
<path fill="none" stroke="black" d="M1966.61,-33.97C1972.67,-33.62 1978.68,-33.3 1984.57,-33 2035.33,-30.43 2089.05,-28.25 2141.64,-26.41"/>
<polygon fill="black" stroke="black" points="2141.92,-29.9 2151.79,-26.06 2141.68,-22.91 2141.92,-29.9"/>
<text text-anchor="middle" x="2012.07" y="-36.8" font-family="Times,serif" font-size="14.00">invokes</text>
</g>
<!-- n_pkg_storage_StateStorer_Get_backend_disk_statestore -->
<g id="node8" class="node">
<title>n_pkg_storage_StateStorer_Get_backend_disk_statestore</title>
<path fill="lightblue" stroke="black" d="M4406.44,-59.73C4406.44,-61.53 4352.87,-63 4286.94,-63 4221,-63 4167.44,-61.53 4167.44,-59.73 4167.44,-59.73 4167.44,-30.27 4167.44,-30.27 4167.44,-28.47 4221,-27 4286.94,-27 4352.87,-27 4406.44,-28.47 4406.44,-30.27 4406.44,-30.27 4406.44,-59.73 4406.44,-59.73"/>
<path fill="none" stroke="black" d="M4406.44,-59.73C4406.44,-57.92 4352.87,-56.45 4286.94,-56.45 4221,-56.45 4167.44,-57.92 4167.44,-59.73"/>
<text text-anchor="middle" x="4286.94" y="-42.5" font-family="Helvetica,sans-Serif" font-size="10.00">disk:statestore ← pkg/storage.StateStorer.Get</text>
</g>
<!-- n_pkg_storage_StateStorer_Get_wiring_pkg_storage_cache -->
<g id="node10" class="node">
<title>n_pkg_storage_StateStorer_Get_wiring_pkg_storage_cache</title>
<polygon fill="lightblue" stroke="black" points="3649.44,-63 3394.44,-63 3394.44,-59 3390.44,-59 3390.44,-55 3394.44,-55 3394.44,-35 3390.44,-35 3390.44,-31 3394.44,-31 3394.44,-27 3649.44,-27 3649.44,-63"/>
<polyline fill="none" stroke="black" points="3394.44,-59 3398.44,-59 3398.44,-55 3394.44,-55 "/>
<polyline fill="none" stroke="black" points="3394.44,-35 3398.44,-35 3398.44,-31 3394.44,-31 "/>
<text text-anchor="middle" x="3521.94" y="-42.5" font-family="Helvetica,sans-Serif" font-size="10.00">pkg/storage/cache ← pkg/storage.StateStorer.Get</text>
</g>
<!-- n_pkg_storage_StateStorer_Get_wiring_pkg_statestore_storeadapter&#45;&gt;n_pkg_storage_StateStorer_Get_wiring_pkg_storage_cache -->
<g id="edge8" class="edge">
<title>n_pkg_storage_StateStorer_Get_wiring_pkg_statestore_storeadapter&#45;&gt;n_pkg_storage_StateStorer_Get_wiring_pkg_storage_cache</title>
<path fill="none" stroke="black" d="M3298.6,-45C3326.86,-45 3356.26,-45 3384.08,-45"/>
<polygon fill="black" stroke="black" points="3384.25,-48.5 3394.25,-45 3384.25,-41.5 3384.25,-48.5"/>
<text text-anchor="middle" x="3346.44" y="-48.8" font-family="Times,serif" font-size="14.00">resolves</text>
</g>
<!-- n_pkg_storage_StateStorer_Get_wiring_pkg_storage_leveldbstore -->
<g id="node11" class="node">
<title>n_pkg_storage_StateStorer_Get_wiring_pkg_storage_leveldbstore</title>
<polygon fill="lightblue" stroke="black" points="4032.44,-63 3745.44,-63 3745.44,-59 3741.44,-59 3741.44,-55 3745.44,-55 3745.44,-35 3741.44,-35 3741.44,-31 3745.44,-31 3745.44,-27 4032.44,-27 4032.44,-63"/>
<polyline fill="none" stroke="black" points="3745.44,-59 3749.44,-59 3749.44,-55 3745.44,-55 "/>
<polyline fill="none" stroke="black" points="3745.44,-35 3749.44,-35 3749.44,-31 3745.44,-31 "/>
<text text-anchor="middle" x="3888.94" y="-42.5" font-family="Helvetica,sans-Serif" font-size="10.00">pkg/storage/leveldbstore ← pkg/storage.StateStorer.Get</text>
</g>
<!-- n_pkg_storage_StateStorer_Get_wiring_pkg_storage_cache&#45;&gt;n_pkg_storage_StateStorer_Get_wiring_pkg_storage_leveldbstore -->
<g id="edge9" class="edge">
<title>n_pkg_storage_StateStorer_Get_wiring_pkg_storage_cache&#45;&gt;n_pkg_storage_StateStorer_Get_wiring_pkg_storage_leveldbstore</title>
<path fill="none" stroke="black" d="M3649.57,-45C3677.2,-45 3706.72,-45 3735.24,-45"/>
<polygon fill="black" stroke="black" points="3735.28,-48.5 3745.28,-45 3735.28,-41.5 3735.28,-48.5"/>
<text text-anchor="middle" x="3697.44" y="-48.8" font-family="Times,serif" font-size="14.00">resolves</text>
</g>
<!-- n_pkg_storage_StateStorer_Get_wiring_pkg_storage_leveldbstore&#45;&gt;n_pkg_storage_StateStorer_Get_backend_disk_statestore -->
<g id="edge10" class="edge">
<title>n_pkg_storage_StateStorer_Get_wiring_pkg_storage_leveldbstore&#45;&gt;n_pkg_storage_StateStorer_Get_backend_disk_statestore</title>
<path fill="none" stroke="black" d="M4032.62,-45C4073.28,-45 4117.33,-45 4157.11,-45"/>
<polygon fill="black" stroke="black" points="4157.13,-48.5 4167.13,-45 4157.13,-41.5 4157.13,-48.5"/>
<text text-anchor="middle" x="4099.94" y="-48.8" font-family="Times,serif" font-size="14.00">uses_backend</text>
</g>
</g>
</svg>
